<svg width="244" height="302" viewBox="0 0 244 302" fill="none" xmlns="http://www.w3.org/2000/svg">
<g clip-path="url(#clip0_22_164)">
<path d="M178.822 0H42.1064C20.843 0 3.60565 11.9505 3.60565 26.6921V243.282C3.60565 258.024 20.843 269.974 42.1064 269.974H178.822C200.085 269.974 217.323 258.024 217.323 243.282V26.6921C217.323 11.9505 200.085 0 178.822 0Z" fill="#3F3D56"/>
<path d="M213.717 26.6939V243.282C213.706 249.696 210.026 255.846 203.485 260.381C196.943 264.917 188.073 267.468 178.821 267.475H42.1078C32.856 267.468 23.9863 264.917 17.4443 260.381C10.9023 255.846 7.22231 249.696 7.21161 243.282V26.6939C7.22232 20.2798 10.9023 14.1305 17.4443 9.59503C23.9863 5.05954 32.856 2.50825 42.1078 2.50082H59.9853V6.78223C59.9854 8.7205 61.0961 10.5794 63.073 11.9499C65.0499 13.3205 67.7311 14.0905 70.5269 14.0906C93.6718 18.9378 120.84 18.1812 150.402 14.0906C153.198 14.0905 155.879 13.3205 157.856 11.9499C159.833 10.5794 160.943 8.7205 160.944 6.78223V2.50082H178.821C188.073 2.50825 196.943 5.05954 203.485 9.59503C210.026 14.1305 213.706 20.2798 213.717 26.6939Z" fill="white"/>
<path d="M2.62229 54.7674C1.92706 54.7669 1.26053 54.5752 0.76893 54.2344C0.277327 53.8935 0.000796407 53.4314 0 52.9494V49.3134C0 48.8313 0.276275 48.3688 0.76805 48.0279C1.25983 47.687 1.92682 47.4954 2.62229 47.4954C3.31777 47.4954 3.98476 47.687 4.47654 48.0279C4.96831 48.3688 5.24459 48.8313 5.24459 49.3134V52.9494C5.24379 53.4314 4.96726 53.8935 4.47566 54.2344C3.98405 54.5752 3.31752 54.7669 2.62229 54.7674Z" fill="#3F3D56"/>
<path d="M2.62229 73.4118C1.92706 73.4112 1.26053 73.2195 0.76893 72.8787C0.277327 72.5379 0.000794676 72.0758 0 71.5938V61.585C0 61.1028 0.276275 60.6404 0.76805 60.2994C1.25983 59.9585 1.92682 59.767 2.62229 59.767C3.31777 59.767 3.98476 59.9585 4.47654 60.2994C4.96831 60.6404 5.24459 61.1028 5.24459 61.585V71.5938C5.24379 72.0758 4.96726 72.5379 4.47566 72.8787C3.98405 73.2195 3.31752 73.4112 2.62229 73.4118Z" fill="#3F3D56"/>
<path d="M2.62229 88.4006C1.92706 88.4 1.26053 88.2083 0.76893 87.8675C0.277327 87.5267 0.000794676 87.0646 0 86.5826V76.5738C0 76.0916 0.276275 75.6292 0.76805 75.2882C1.25983 74.9473 1.92682 74.7558 2.62229 74.7558C3.31777 74.7558 3.98476 74.9473 4.47654 75.2882C4.96831 75.6292 5.24459 76.0916 5.24459 76.5738V86.5826C5.24379 87.0646 4.96726 87.5267 4.47566 87.8675C3.98405 88.2083 3.31752 88.4 2.62229 88.4006Z" fill="#3F3D56"/>
<path d="M217.651 52.1641C216.957 52.1637 216.29 52.3545 215.799 52.6945C215.307 53.0346 215.03 53.496 215.029 53.9775V78.4024C215.029 78.8846 215.305 79.347 215.797 79.688C216.289 80.0289 216.956 80.2204 217.651 80.2204C218.347 80.2204 219.014 80.0289 219.505 79.688C219.997 79.347 220.274 78.8846 220.274 78.4024V53.9775C220.271 53.4963 219.994 53.0352 219.503 52.6954C219.011 52.3555 218.345 52.1644 217.651 52.1641Z" fill="#3F3D56"/>
<path d="M52.1744 13.2137H34.4739C33.6046 13.2137 32.7708 12.9743 32.1561 12.5481C31.5414 12.122 31.196 11.5439 31.196 10.9412C31.196 10.3385 31.5414 9.76051 32.1561 9.33433C32.7708 8.90815 33.6046 8.66873 34.4739 8.66873H52.1744C53.0437 8.66873 53.8775 8.90815 54.4922 9.33433C55.1069 9.76051 55.4523 10.3385 55.4523 10.9412C55.4523 11.5439 55.1069 12.122 54.4922 12.5481C53.8775 12.9743 53.0437 13.2137 52.1744 13.2137Z" fill="#E6E6E6"/>
<path d="M155.016 240.762C150.083 240.976 147.357 236.727 151.089 234.251C151.226 233.874 151.324 233.604 151.461 233.228C151.412 233.146 151.363 233.064 151.313 232.982C146.325 224.735 136.224 229.365 124.472 233.051C114.78 236.091 105.01 240.052 113.117 255.474C114.82 258.714 112.777 262.381 113.872 265.738C103.562 250.145 98.2075 233.197 98.173 216.043C98.1709 211.739 98.5158 207.438 99.2063 203.16C99.777 199.653 100.569 196.171 101.581 192.714C105.835 178.326 113.812 164.592 125.128 152.176C123.687 152.189 122.245 152.2 120.8 152.208C118.199 155.152 115.776 158.165 113.53 161.248C114.044 158.255 114.129 155.233 113.782 152.227C96.258 152.223 78.7468 151.834 63.2646 151.061C63.8519 183.958 81.3671 190.818 102.846 175.062C103.447 175.276 104.033 175.49 104.635 175.693C99.4612 185.858 96.216 196.446 94.9808 207.191C94.2815 213.53 94.3228 219.898 95.1042 226.233C95.0887 226.158 95.0733 226.083 95.0579 226.008C93.0838 218.964 87.6638 212.608 79.7132 208.014C67.9046 201.289 51.2214 198.812 38.482 193.407C32.3497 190.804 24.4915 194.167 25.5618 199.096C25.5789 199.175 25.5963 199.254 25.6139 199.332C27.5129 199.868 29.362 200.486 31.1503 201.182C32.1736 201.582 33.1753 202.007 34.1555 202.456C39.7414 205.018 37.8109 211.021 31.1922 211.729L31.0422 211.745C30.9343 211.756 30.8417 211.767 30.7339 211.777C33.9787 217.149 38.5329 222.093 44.197 226.393C45.7763 260.18 71.4175 255.823 98.8516 243.019H98.8671C101.653 251.412 105.689 259.581 110.912 267.396H153.938C154.092 267.064 154.231 266.722 154.37 266.391C150.387 266.564 146.389 266.399 142.464 265.899C145.657 263.183 148.849 260.446 152.041 257.73C152.112 257.68 152.179 257.626 152.242 257.57C153.861 256.18 155.496 254.801 157.115 253.411L157.116 253.409C157.202 249.149 156.497 244.898 155.018 240.763L155.016 240.762Z" fill="#90E4EF"/>
<path d="M109.169 137.727C104.995 130.745 97.1708 124.866 90.2811 118.831C82.0053 111.581 65.0352 114.745 63.5772 123.935C63.5631 124.024 63.5493 124.113 63.5359 124.201C64.5593 124.602 65.561 125.027 66.5411 125.476C72.1271 128.037 70.1966 134.041 63.5778 134.749L63.428 134.765C63.7925 137.322 64.437 139.856 65.3556 142.345C64.2569 145.197 63.5567 148.116 63.2646 151.061C78.7469 151.834 96.258 152.223 113.782 152.227C113.214 146.884 111.5 141.622 109.169 137.727Z" fill="#E6E6E6"/>
<path d="M154.215 128.879C155.751 126.761 156.837 124.499 157.439 122.165C156.498 122.251 153.891 112.318 154.601 111.709C153.29 110.329 150.944 109.644 149.512 108.298C142.391 101.605 132.58 102.773 127.459 111.869C116.518 115.697 116.412 122.046 123.125 128.152C127.396 132.037 127.983 137.294 131.731 141.453C131.345 141.795 130.944 142.126 130.558 142.469C126.57 146.023 122.875 149.729 119.488 153.572C120.933 153.563 122.376 153.553 123.817 153.539C127.215 149.812 130.913 146.219 134.892 142.779C143.231 139.624 149.975 134.773 154.215 128.879Z" fill="#E6E6E6"/>
<path opacity="0.1" d="M213.283 26.5955V142.284C213.283 155.624 6.77777 155.624 6.77777 142.284V26.5955C6.78848 20.1814 10.4685 14.0321 17.0104 9.49661C23.5524 4.96113 32.4222 2.40983 41.6739 2.4024H59.5514V6.68381C59.5516 8.62208 60.6623 10.4809 62.6392 11.8515C64.6161 13.2221 67.2973 13.9921 70.0931 13.9922C92.2549 18.8178 119.615 18.0234 149.968 13.9922C152.764 13.9921 155.445 13.2221 157.422 11.8515C159.399 10.4809 160.51 8.62208 160.51 6.68381V2.4024H178.387C187.639 2.40983 196.509 4.96113 203.051 9.49661C209.593 14.0321 213.273 20.1814 213.283 26.5955Z" fill="black"/>
<path d="M129.667 39.0971H123.767C121.507 39.0989 119.341 39.7219 117.743 40.8296C116.145 41.9373 115.247 43.4392 115.244 45.0057V49.5507H104.755C102.495 49.5524 100.329 50.1755 98.7314 51.2832C97.1337 52.3908 96.235 53.8927 96.2325 55.4592V64.5492C96.235 66.1157 97.1337 67.6176 98.7314 68.7253C100.329 69.833 102.495 70.456 104.755 70.4578H117.866C120.126 70.456 122.292 69.833 123.89 68.7253C125.488 67.6176 126.386 66.1157 126.389 64.5492V55.4592C126.386 53.8927 125.488 52.3909 123.89 51.2832C122.292 50.1755 120.126 49.5524 117.866 49.5507H116.555V45.0057C116.557 43.6802 117.318 42.4094 118.67 41.4721C120.022 40.5349 121.855 40.0076 123.767 40.0061H129.667C131.579 40.0076 133.412 40.5349 134.763 41.4721C136.115 42.4094 136.876 43.6802 136.878 45.0057V50.0052H138.189V45.0057C138.187 43.4392 137.288 41.9373 135.69 40.8296C134.093 39.7219 131.926 39.0989 129.667 39.0971ZM125.078 55.4592V64.5492C125.076 65.8747 124.315 67.1455 122.963 68.0828C121.611 69.02 119.778 69.5473 117.866 69.5488H104.755C102.843 69.5473 101.01 69.02 99.6582 68.0828C98.3062 67.1455 97.5458 65.8747 97.5436 64.5492V55.4592C97.5458 54.1337 98.3062 52.8629 99.6582 51.9257C101.01 50.9884 102.843 50.4612 104.755 50.4597C110.963 52.9637 114.383 51.6686 117.866 50.4597C119.778 50.4612 121.611 50.9884 122.963 51.9257C124.315 52.8629 125.076 54.1337 125.078 55.4592Z" fill="white"/>
<path d="M111.311 64.0947C112.478 64.0947 113.618 63.8548 114.589 63.4054C115.559 62.9559 116.315 62.317 116.762 61.5696C117.208 60.8221 117.325 59.9997 117.097 59.2062C116.87 58.4127 116.308 57.6839 115.483 57.1118C114.658 56.5397 113.606 56.1501 112.462 55.9923C111.317 55.8345 110.131 55.9155 109.053 56.2251C107.975 56.5347 107.053 57.059 106.405 57.7316C105.757 58.4043 105.411 59.1952 105.411 60.0042C105.412 61.0887 106.035 62.1284 107.141 62.8953C108.247 63.6621 109.746 64.0935 111.311 64.0947ZM111.311 59.0952C113.841 59.0952 115.9 58.2499 115.9 60.0042C115.9 60.848 115.416 61.6572 114.556 62.2539C113.695 62.8505 112.528 63.1857 111.311 63.1857C110.094 63.1857 108.926 62.8505 108.066 62.2539C107.205 61.6572 106.722 60.848 106.722 60.0042C106.722 58.2499 108.78 59.0952 111.311 59.0952Z" fill="white"/>
<path d="M111.311 61.3677C112.397 61.3677 113.277 60.7573 113.277 60.0042C113.277 59.2512 112.397 58.6407 111.311 58.6407C110.225 58.6407 109.344 59.2512 109.344 60.0042C109.344 60.7573 110.225 61.3677 111.311 61.3677Z" fill="white"/>
<path d="M220.274 65.4583H215.547V66.3673H220.274V65.4583Z" fill="white"/>
<path opacity="0.1" d="M7.07458 140.02V142.293C7.07458 155.633 213.58 155.633 213.58 142.293V140.02C213.58 153.36 7.07458 153.36 7.07458 140.02Z" fill="black"/>
<path d="M189.473 172.537C190.756 172.356 191.886 171.835 192.622 171.085C193.359 170.335 193.645 169.415 193.419 168.521C193.369 168.34 193.297 168.162 193.205 167.989L206.637 160.179L203.319 154.06L186.587 166.137C185.582 166.459 184.759 167.002 184.246 167.682C183.733 168.361 183.559 169.14 183.751 169.895C183.984 170.762 184.704 171.529 185.753 172.028C186.802 172.527 188.094 172.716 189.344 172.555C189.387 172.549 189.43 172.543 189.473 172.537Z" fill="#A0616A"/>
<path d="M195.798 126.455L190.471 129.4C190.471 129.4 184.106 137.423 188.668 139.088C193.231 140.752 207.416 146.286 207.416 146.286C207.416 146.286 201.554 150.332 200.862 152.297C200.171 154.262 201.701 156.008 199.272 155.597C196.842 155.186 196.773 156.525 196.18 158.209C195.588 159.893 191.637 161.445 191.637 161.445L199.189 165.308C199.189 165.308 202.684 166.164 202.971 164.13C203.258 162.096 202.461 162.383 204.891 162.794C207.321 163.205 209.368 160.569 210.662 158.111C211.956 155.653 225.159 144.211 225.159 144.211L211.345 133.554C207.129 130.301 201.774 127.856 195.798 126.455V126.455Z" fill="#90E4EF"/>
<path d="M194.584 293.459L189.084 293.427L186.65 278.378L194.767 278.426L194.584 293.459Z" fill="#A0616A"/>
<path d="M176.969 299.522C176.964 299.974 177.218 300.409 177.675 300.731C178.132 301.054 178.755 301.237 179.406 301.242L190.341 301.305L192.255 298.615L192.958 301.319L197.083 301.345L196.042 291.702L194.606 291.635L188.752 291.356L186.863 291.268L186.83 293.996L178.046 298.127C177.717 298.281 177.447 298.489 177.259 298.732C177.072 298.975 176.972 299.246 176.969 299.522Z" fill="#2F2E41"/>
<path d="M144.094 293.459L138.595 293.427L136.161 278.378L144.277 278.426L144.094 293.459Z" fill="#A0616A"/>
<path d="M126.479 299.522C126.475 299.974 126.728 300.409 127.185 300.731C127.642 301.054 128.265 301.237 128.917 301.242L139.851 301.305L141.765 298.615L142.468 301.319L146.594 301.345L145.552 291.702L144.117 291.635L138.262 291.356L136.373 291.268L136.34 293.996L127.557 298.127C127.228 298.281 126.958 298.489 126.77 298.732C126.583 298.975 126.483 299.246 126.479 299.522Z" fill="#2F2E41"/>
<path d="M158.322 166.024C158.322 166.024 147.763 169.63 150.516 171.801C153.268 173.972 151.006 175.199 147.574 177.238C144.143 179.277 137.235 203.163 137.235 203.163L128.291 240.164C128.291 240.164 130.664 272.472 132.257 273.622C133.849 274.773 136.3 273.074 133.849 274.773C131.398 276.472 129.438 275.113 131.398 276.472C133.359 277.831 133.849 281.57 133.849 281.57L146.552 280.828C146.552 280.828 154.82 255.994 149.236 244.993L171.14 204.749L177.763 243.58C177.763 243.58 181.397 275.113 183.848 276.132C186.299 277.152 188.065 277.22 185.957 278.545C183.848 279.87 183.848 277.831 183.848 279.87V283.253L195.706 284.381C195.706 284.381 201.213 254.152 198.658 240.164L206.397 193.211L200.369 172.052L194.142 166.363L158.322 166.024Z" fill="#2F2E41"/>
<path d="M107.366 154.58C108.423 155.115 109.739 155.343 111.035 155.215C112.331 155.088 113.504 154.615 114.305 153.897C114.464 153.749 114.605 153.592 114.728 153.429L132.101 155.051L136.39 149.229L112.244 148.79C111.225 148.492 110.091 148.436 109.021 148.631C107.951 148.826 107.004 149.261 106.328 149.868C105.948 150.217 105.67 150.613 105.512 151.036C105.353 151.458 105.316 151.898 105.402 152.331C105.489 152.763 105.697 153.18 106.016 153.556C106.335 153.933 106.757 154.262 107.259 154.526C107.294 154.544 107.33 154.562 107.366 154.58Z" fill="#A0616A"/>
<path d="M160.754 126.781L154.026 126.035C154.026 126.035 145.952 129.091 147.251 132.55C148.551 136.009 147.438 146.092 147.438 146.092C147.438 146.092 139.176 145.813 136.615 146.783C134.054 147.752 133.224 149.712 132.025 148.191C130.827 146.669 132.09 145.861 129.895 146.692C127.7 147.523 120.649 148.217 120.649 148.217L117.814 154.909C117.814 154.909 121.752 158.664 124.113 157.441C126.475 156.218 126.939 154.396 128.138 155.918C129.336 157.439 129.67 160.276 133.163 159.283C136.655 158.291 161.601 153.787 161.601 153.787L164.616 132.891L160.754 126.781Z" fill="#90E4EF"/>
<path d="M154.188 171.183C154.188 171.183 149.438 165.927 150.343 165.157C151.247 164.386 152.38 165.718 150.343 164.372C148.306 163.027 159.728 154.045 160.479 152.723C161.229 151.4 149.045 128.301 149.045 128.301L159.422 123.968L168.192 115.414L183.877 117.154L189.396 124.909L197.191 126.816L197.846 127.27V141.36C197.846 141.36 201.315 153.386 193.683 157.527C193.683 157.527 197.325 163.027 196.344 164.046C195.364 165.066 212.991 178.462 199.158 179.993C184.004 181.669 151.683 170.589 154.188 171.183Z" fill="#90E4EF"/>
<path d="M76.3896 301.459C76.3893 301.53 76.4092 301.601 76.4483 301.666C76.4874 301.732 76.5449 301.792 76.6174 301.842C76.6899 301.892 76.776 301.932 76.8708 301.959C76.9656 301.986 77.0672 302 77.1698 302H243.22C243.427 302 243.625 301.943 243.772 301.842C243.918 301.74 244 301.603 244 301.459C244 301.316 243.918 301.178 243.772 301.077C243.625 300.975 243.427 300.918 243.22 300.918H77.1698C77.0672 300.918 76.9656 300.932 76.8708 300.959C76.776 300.986 76.6899 301.026 76.6174 301.076C76.5449 301.126 76.4875 301.186 76.4484 301.252C76.4093 301.318 76.3893 301.388 76.3896 301.459Z" fill="#CCCCCC"/>
<path d="M178.345 117.555C187.166 117.555 194.317 112.598 194.317 106.482C194.317 100.367 187.166 95.409 178.345 95.409C169.524 95.409 162.373 100.367 162.373 106.482C162.373 112.598 169.524 117.555 178.345 117.555Z" fill="#A0616A"/>
<path d="M190.687 98.2958C190.523 97.2993 189.538 96.0676 188.852 95.1843C188.167 94.3009 186.844 93.5795 185.4 93.641C184.81 93.6884 184.245 93.8341 183.753 94.0655C183.262 94.297 182.859 94.6074 182.578 94.9703C182.027 95.701 181.727 96.51 181.7 97.3343C181.55 99.1736 181.993 101.013 182.997 102.718C184.002 104.424 185.543 105.953 187.508 107.193C188.627 107.889 189.974 108.508 191.477 108.532C192.16 108.52 192.833 108.415 193.455 108.22C194.078 108.026 194.639 107.748 195.104 107.401C197.537 105.712 197.905 102.934 196.606 100.723C195.306 98.5121 194.726 97.6517 191.755 96.444" fill="#2F2E41"/>
<path d="M168.25 114.222C168.517 115.207 166.06 119.892 166.845 120.736C166.845 120.736 174.976 122.694 178.086 122.835C181.884 123.006 184.939 121.925 188.491 120.299C188.556 119.417 188.924 118.559 189.565 117.796C189.511 118.387 189.685 118.977 190.067 119.507C203.373 117.215 200.115 108.937 192.079 105.059L186.737 96.5406C188.34 96.9109 183.502 91.1884 178.4 95.3329C172.016 90.8255 159.649 97.3143 158.1 103.111C159.591 101.802 160.367 101.957 160.75 102.859C161.189 102.1 161.885 101.425 162.779 100.892C162.335 101.501 162.108 102.176 162.117 102.859C172.187 103.292 170.313 108.002 162.059 115.057C165.111 113.74 163.052 119.417 164.681 120.773C164.761 119.825 167.961 115.144 168.25 114.222Z" fill="#2F2E41"/>
<path d="M182.782 105.15C182.911 105.15 183.035 105.118 183.132 105.059C183.229 105 183.293 104.919 183.31 104.831C183.328 104.742 183.299 104.652 183.229 104.578C183.158 104.503 183.052 104.448 182.928 104.424C182.813 103.968 182.801 103.502 182.891 103.044C183.065 100.998 183.356 97.5741 178.561 95.2628C178.444 95.2071 178.301 95.1856 178.162 95.2031C178.023 95.2206 177.899 95.2756 177.819 95.356C177.738 95.4365 177.707 95.5358 177.731 95.6323C177.756 95.7288 177.835 95.8145 177.951 95.8708C182.254 97.9452 181.996 100.988 181.824 103.001C181.727 104.151 181.656 104.983 182.663 105.141C182.702 105.147 182.742 105.15 182.782 105.15Z" fill="#90E4EF"/>
<path d="M182.533 97.0554C185.793 96.1173 189.266 95.5837 192.793 95.479C195.591 95.3968 198.929 95.8293 200.066 97.6032C200.756 98.6794 200.388 99.9408 199.757 101.034C199.126 102.128 196.177 104.335 197.875 104.311C202.14 104.25 203.961 106.895 201.797 111.004C200.542 113.387 208.329 113.295 211.96 113.614C209.232 114.316 206.463 115.024 203.564 115.192C200.665 115.361 197.569 114.924 195.404 113.576C193.062 112.118 192.162 109.853 191.763 107.688C191.365 105.523 191.344 103.293 190.285 101.237C189.227 99.1818 186.795 97.2675 183.658 97.0852" fill="#2F2E41"/>
</g>
<defs>
<clipPath id="clip0_22_164">
<rect width="244" height="302" fill="white"/>
</clipPath>
</defs>
</svg>
