<svg width="250" height="250" viewBox="0 0 250 250" fill="none" xmlns="http://www.w3.org/2000/svg">
<g clip-path="url(#clip0_13_5)">
<path d="M217.248 196.034C217.192 195.92 217.137 195.805 217.082 195.691C217.027 195.577 216.973 195.462 216.918 195.347C216.864 195.232 216.81 195.117 216.756 195.002C216.702 194.886 216.649 194.77 216.595 194.653C216.506 191.303 216.505 187.982 216.592 184.691C216.676 181.424 216.848 178.195 217.106 175.006C217.36 171.841 217.698 168.725 218.118 165.657C218.535 162.613 219.032 159.627 219.609 156.698C219.675 156.36 219.742 156.024 219.81 155.689C219.878 155.354 219.948 155.021 220.019 154.69C220.089 154.358 220.16 154.027 220.233 153.698C220.306 153.369 220.38 153.041 220.455 152.714C221.011 150.268 221.622 147.882 222.29 145.556C222.953 143.247 223.669 141.001 224.439 138.819C225.202 136.652 226.016 134.552 226.88 132.519C227.738 130.501 228.644 128.553 229.598 126.676L229.748 126.382L229.899 126.089L230.05 125.797L230.202 125.508L230.311 125.3L230.422 125.093C230.459 125.024 230.496 124.955 230.533 124.887C230.57 124.819 230.608 124.751 230.647 124.684L230.737 124.604L230.827 124.525L230.917 124.446L231.006 124.367L231.012 124.364L231.017 124.36L231.023 124.356L231.029 124.352L231.065 124.32L231.1 124.288L231.135 124.256L231.169 124.224L231.325 124.089L231.48 123.956L231.635 123.824L231.789 123.69L231.672 123.595L231.377 123.358L231.379 123.356C231.404 123.374 231.429 123.392 231.454 123.412C231.479 123.431 231.504 123.45 231.529 123.468C231.555 123.487 231.58 123.506 231.604 123.525C231.629 123.544 231.654 123.563 231.679 123.583L231.707 123.603L231.736 123.623L231.766 123.643C231.775 123.649 231.785 123.657 231.794 123.665C231.802 123.672 231.81 123.678 231.819 123.683L231.845 123.7L231.87 123.718L231.895 123.735C232.97 124.53 234.048 125.337 235.112 126.183C236.175 127.03 237.222 127.912 238.241 128.861C239.258 129.802 240.242 130.83 241.192 131.939C242.138 133.042 243.035 134.254 243.873 135.566C244.757 136.96 245.549 138.502 246.233 140.163C246.911 141.796 247.468 143.551 247.893 145.392C248.302 147.144 248.546 148.986 248.616 150.855C248.684 152.653 248.527 154.455 248.155 156.153C248.105 156.375 248.051 156.593 247.993 156.808C247.934 157.024 247.872 157.236 247.807 157.444C247.741 157.653 247.671 157.858 247.597 158.059C247.523 158.261 247.446 158.458 247.365 158.653C247.331 158.733 247.297 158.814 247.261 158.893C247.226 158.972 247.191 159.051 247.154 159.129C247.118 159.207 247.082 159.285 247.044 159.362C247.007 159.44 246.97 159.517 246.932 159.593C246.228 161.021 245.333 162.174 244.315 162.966C243.291 163.756 242.178 164.201 241.044 164.275C239.852 164.355 238.661 164.076 237.533 163.453C236.322 162.786 235.198 161.768 234.214 160.449C233.874 159.995 233.552 159.508 233.249 158.991C232.95 158.478 232.67 157.935 232.412 157.366C232.156 156.802 231.923 156.212 231.713 155.601C231.504 154.994 231.321 154.366 231.163 153.72C231.089 155.725 231.282 157.732 231.729 159.606C232.2 161.577 232.841 163.43 233.632 165.112C234.468 166.904 235.396 168.579 236.405 170.12C237.421 171.692 238.501 173.166 239.567 174.523C240.633 175.881 241.737 177.269 242.806 178.717C243.873 180.141 244.89 181.661 245.85 183.272C246.781 184.828 247.604 186.543 248.306 188.386C248.995 190.205 249.493 192.196 249.78 194.277C250.088 196.544 250.072 198.895 249.735 201.151C249.571 202.249 249.337 203.316 249.038 204.336C248.736 205.365 248.374 206.346 247.958 207.264L247.918 207.348L247.88 207.432L247.84 207.515L247.799 207.598C246.782 209.743 245.506 211.531 244.047 212.855C243.313 213.521 242.539 214.066 241.737 214.483C240.916 214.909 240.071 215.203 239.214 215.359C237.584 215.601 235.94 215.45 234.338 214.909C232.688 214.351 231.084 213.485 229.558 212.328C227.981 211.137 226.473 209.719 225.053 208.092C223.62 206.456 222.264 204.652 220.995 202.696C220.658 202.177 220.327 201.649 220.001 201.112C219.676 200.574 219.358 200.027 219.045 199.472C218.732 198.916 218.426 198.352 218.127 197.779C217.827 197.206 217.534 196.624 217.248 196.034Z" fill="#F2F2F2"/>
<path d="M243.456 157.218C242.449 156.374 241.48 155.415 240.558 154.347C238.715 152.216 237.069 149.674 235.668 146.797C234.974 145.37 234.345 143.862 233.786 142.287C233.32 140.956 232.906 139.58 232.547 138.165C232.197 136.785 231.902 135.37 231.665 133.928C231.434 132.52 231.261 131.088 231.149 129.643C231.039 128.227 230.991 126.801 231.004 125.374C231.006 125.293 231.007 125.213 231.008 125.134C231.009 125.055 231.01 124.975 231.011 124.894C231.013 124.814 231.014 124.734 231.017 124.656L231.024 124.419C230.982 124.473 230.94 124.527 230.898 124.582L230.772 124.747L230.646 124.914L230.521 125.081L230.441 125.189L230.36 125.297L230.28 125.406L230.201 125.515L230.31 125.307L230.422 125.093C230.459 125.024 230.496 124.956 230.534 124.887C230.571 124.819 230.609 124.752 230.647 124.685L230.738 124.605L230.828 124.526L230.916 124.447L231.005 124.368L231.011 124.365L231.016 124.361L231.022 124.356L231.028 124.353L231.064 124.321L231.1 124.289L231.134 124.257L231.168 124.225L231.324 124.09L231.479 123.957L231.635 123.825L231.79 123.692L231.668 123.595L231.373 123.358L231.375 123.356C231.401 123.373 231.426 123.392 231.451 123.411C231.476 123.43 231.501 123.449 231.526 123.467C231.551 123.486 231.576 123.505 231.601 123.524C231.626 123.543 231.65 123.562 231.676 123.582L231.704 123.602L231.733 123.622L231.762 123.642C231.772 123.648 231.781 123.656 231.79 123.664L231.788 123.74L231.784 123.811L231.782 123.881L231.779 123.953C231.67 126.356 231.748 128.772 232.01 131.144C232.28 133.586 232.723 135.97 233.329 138.248C233.956 140.607 234.74 142.849 235.667 144.935C236.625 147.093 237.722 149.08 238.941 150.862C240.167 152.632 241.505 154.19 242.932 155.51C243.637 156.162 244.363 156.753 245.106 157.281C245.844 157.803 246.598 158.261 247.366 158.651C247.332 158.732 247.298 158.812 247.263 158.891C247.227 158.971 247.192 159.05 247.156 159.128C247.119 159.206 247.083 159.283 247.046 159.361C247.009 159.438 246.971 159.515 246.933 159.591C246.637 159.433 246.342 159.264 246.049 159.086C245.756 158.907 245.464 158.719 245.174 158.521C244.884 158.323 244.596 158.115 244.31 157.897C244.024 157.68 243.739 157.453 243.456 157.218Z" fill="white"/>
<path d="M223.514 175.179C223.184 174.384 222.873 173.575 222.58 172.751C222.287 171.926 222.013 171.091 221.759 170.243C221.504 169.396 221.269 168.538 221.054 167.669C220.838 166.8 220.643 165.924 220.468 165.04C220.378 164.571 220.296 164.101 220.22 163.628C220.145 163.156 220.076 162.683 220.015 162.21C219.954 161.736 219.9 161.261 219.852 160.786C219.804 160.31 219.764 159.834 219.732 159.359C219.715 159.138 219.7 158.916 219.687 158.694C219.674 158.472 219.662 158.25 219.652 158.028C219.641 157.806 219.633 157.584 219.626 157.362C219.618 157.141 219.613 156.92 219.608 156.699C219.674 156.361 219.741 156.025 219.809 155.69C219.877 155.355 219.947 155.021 220.017 154.689C220.087 154.357 220.159 154.026 220.232 153.697C220.304 153.367 220.378 153.039 220.454 152.712C220.437 152.986 220.423 153.261 220.412 153.536C220.4 153.811 220.391 154.087 220.384 154.364C220.377 154.641 220.373 154.918 220.37 155.196C220.368 155.475 220.369 155.753 220.372 156.033C220.371 156.185 220.372 156.337 220.374 156.489C220.376 156.641 220.378 156.794 220.382 156.946C220.385 157.098 220.389 157.25 220.394 157.402C220.399 157.555 220.404 157.707 220.411 157.859C220.483 159.567 220.649 161.261 220.907 162.922C221.168 164.603 221.508 166.249 221.925 167.846C222.35 169.473 222.839 171.054 223.391 172.579C223.952 174.131 224.566 175.632 225.229 177.075C225.943 178.633 226.698 180.15 227.493 181.625C228.288 183.101 229.114 184.536 229.97 185.931C230.826 187.325 231.708 188.676 232.614 189.983C233.521 191.29 234.443 192.553 235.38 193.77C236.339 195.019 237.318 196.221 238.317 197.376C239.315 198.531 240.33 199.635 241.36 200.688C242.391 201.741 243.437 202.743 244.498 203.693C245.56 204.644 246.633 205.54 247.719 206.381C247.769 206.421 247.814 206.474 247.851 206.54C247.889 206.604 247.919 206.678 247.94 206.758C247.962 206.837 247.974 206.922 247.978 207.009C247.981 207.096 247.974 207.183 247.957 207.265C247.951 207.301 247.943 207.336 247.934 207.369C247.924 207.401 247.912 207.432 247.899 207.46C247.886 207.489 247.87 207.515 247.854 207.538C247.837 207.561 247.819 207.581 247.8 207.597C247.779 207.612 247.758 207.623 247.736 207.629C247.714 207.636 247.691 207.638 247.669 207.635C247.646 207.633 247.623 207.626 247.602 207.615C247.579 207.604 247.557 207.589 247.537 207.57C247.402 207.466 247.268 207.362 247.134 207.257C247 207.153 246.867 207.047 246.733 206.941C246.6 206.835 246.466 206.729 246.333 206.621C246.2 206.513 246.067 206.403 245.934 206.292C244.828 205.375 243.736 204.403 242.659 203.376C241.583 202.349 240.522 201.269 239.478 200.135C238.433 199.001 237.408 197.816 236.402 196.58C235.396 195.345 234.41 194.06 233.447 192.726C232.515 191.441 231.596 190.114 230.699 188.741C229.802 187.368 228.927 185.951 228.085 184.489C227.243 183.027 226.435 181.521 225.669 179.969C224.903 178.417 224.181 176.821 223.514 175.179Z" fill="white"/>
<path d="M244.355 47.6071L243.563 47.7733L248.876 15.5929C249.268 13.4441 249.331 11.1744 249.062 8.97722C248.828 7.18196 248.25 5.55108 247.409 4.31601C246.529 3.0811 245.45 2.27308 244.297 1.98519C242.893 1.6343 241.46 1.73786 240.081 2.28984L203.969 15.5604C202.709 16.0538 201.502 16.8547 200.391 17.9353C199.183 19.0945 198.06 20.469 197.042 22.0331C195.995 23.6279 195.055 25.3967 194.238 27.3098C193.44 29.1616 192.789 31.168 192.302 33.2819L154.518 200.978C153.89 203.735 153.482 206.611 153.304 209.534C153.138 212.13 153.216 214.751 153.535 217.309C153.801 219.532 154.357 221.637 155.166 223.487C155.908 225.169 156.953 226.441 158.158 227.13L196.313 248.325C198.008 249.256 199.827 249.431 201.578 248.831C203.451 248.173 205.212 246.864 206.739 244.996C208.453 242.917 209.928 240.367 211.095 237.463C212.387 234.272 213.353 230.767 213.955 227.081L239.534 72.1638L240.337 72.0601L244.355 47.6071Z" fill="#2F2E41"/>
<path d="M241.595 45.8255L240.802 45.9916L246.116 13.8112C246.507 11.6624 246.571 9.39271 246.302 7.19557C246.068 5.40031 245.49 3.76944 244.649 2.53436C243.769 1.29945 242.69 0.491436 241.537 0.203538C240.133 -0.147343 238.699 -0.043782 237.32 0.508194L201.209 13.7787C199.948 14.2722 198.742 15.073 197.631 16.1536C196.423 17.3128 195.3 18.6874 194.282 20.2514C193.235 21.8463 192.295 23.615 191.478 25.5282C190.68 27.3799 190.029 29.3864 189.541 31.5002L151.758 199.196C151.13 201.954 150.722 204.829 150.543 207.753C150.378 210.348 150.456 212.969 150.775 215.527C151.041 217.75 151.597 219.856 152.406 221.706C153.147 223.387 154.192 224.659 155.398 225.348L193.552 246.543C195.247 247.475 197.067 247.649 198.818 247.049C200.69 246.391 202.451 245.083 203.978 243.215C205.693 241.136 207.168 238.586 208.335 235.682C209.627 232.491 210.593 228.985 211.194 225.299L236.774 70.3822L237.577 70.2784L241.595 45.8255Z" fill="#3F3D56"/>
<path d="M237.001 4.70706L231.693 6.58357C231.751 7.32467 231.705 8.07732 231.559 8.78612C231.394 9.61518 231.154 10.4006 230.847 11.1174C230.157 12.7446 229.236 14.0822 228.16 15.0187C228.032 15.1292 227.903 15.2312 227.775 15.3247C227.647 15.4183 227.519 15.5032 227.392 15.5795C227.264 15.6558 227.138 15.7232 227.012 15.7817C226.886 15.8402 226.762 15.8895 226.639 15.9296L205.885 22.7109C205.5 22.8553 205.099 22.848 204.716 22.6896C204.408 22.556 204.136 22.2604 203.943 21.8495C203.749 21.4083 203.64 20.8848 203.628 20.344C203.612 19.6542 203.68 18.966 203.827 18.3179C203.864 18.143 203.906 17.9669 203.953 17.7896C204 17.6123 204.051 17.4351 204.107 17.2578C204.162 17.0796 204.223 16.9024 204.288 16.726C204.353 16.5496 204.422 16.3734 204.495 16.1973L200.565 17.5865C199.618 17.9447 198.712 18.5366 197.877 19.3414C196.966 20.2082 196.118 21.2392 195.35 22.4147C194.559 23.6157 193.849 24.9494 193.233 26.3931C192.632 27.7882 192.144 29.301 191.78 30.8949L154.067 200.048C153.598 202.127 153.297 204.294 153.171 206.497C153.055 208.441 153.124 210.403 153.375 212.314C153.584 213.966 154.011 215.525 154.627 216.887C155.192 218.122 155.979 219.045 156.881 219.53L195.316 239.68C196.584 240.336 197.938 240.434 199.237 239.963C200.621 239.452 201.921 238.468 203.049 237.077C204.311 235.535 205.398 233.652 206.26 231.51C207.214 229.157 207.931 226.575 208.382 223.859L243.499 14.747C243.794 13.1508 243.849 11.4641 243.658 9.82703C243.494 8.48544 243.073 7.26044 242.456 6.323C241.809 5.38576 241.01 4.76461 240.153 4.53201C239.106 4.24824 238.034 4.30777 237.001 4.70706Z" fill="white"/>
<path d="M216.389 84.8202H139.932V43.0116H216.389V84.8202Z" fill="white"/>
<path d="M194.036 99.5762H119.103V158.19H194.036V99.5762Z" fill="white"/>
<path d="M131.276 127.723C134.27 127.723 136.696 123.807 136.696 118.976C136.696 114.146 134.27 110.23 131.276 110.23C128.283 110.23 125.856 114.146 125.856 118.976C125.856 123.807 128.283 127.723 131.276 127.723Z" fill="#90E4EF"/>
<path d="M143.794 113.145C143.555 113.145 143.325 113.299 143.155 113.572C142.986 113.846 142.891 114.217 142.891 114.603C142.891 114.99 142.986 115.361 143.155 115.634C143.325 115.907 143.555 116.061 143.794 116.061H186.382C186.621 116.06 186.85 115.906 187.019 115.633C187.188 115.359 187.283 114.989 187.283 114.603C187.283 114.217 187.188 113.847 187.019 113.574C186.85 113.3 186.621 113.146 186.382 113.145H143.794Z" fill="#E6E6E6"/>
<path d="M143.794 121.892C143.675 121.891 143.558 121.928 143.448 122.001C143.338 122.074 143.238 122.181 143.154 122.316C143.07 122.451 143.003 122.612 142.957 122.788C142.912 122.965 142.888 123.155 142.888 123.346C142.888 123.538 142.911 123.728 142.956 123.905C143.001 124.082 143.068 124.243 143.151 124.379C143.235 124.514 143.335 124.622 143.444 124.696C143.554 124.769 143.672 124.807 143.79 124.807H162.12C162.238 124.807 162.356 124.77 162.465 124.696C162.575 124.623 162.675 124.516 162.758 124.38C162.842 124.245 162.909 124.084 162.954 123.907C163 123.73 163.023 123.541 163.023 123.349C163.023 123.158 163 122.969 162.954 122.792C162.909 122.615 162.842 122.454 162.758 122.319C162.675 122.183 162.575 122.076 162.465 122.003C162.356 121.929 162.238 121.892 162.12 121.892H143.794Z" fill="#E6E6E6"/>
<path d="M127.119 135.875C126.431 135.875 125.872 136.529 125.872 137.332C125.872 138.136 126.431 138.79 127.119 138.79H185.876C186.563 138.79 187.122 138.136 187.122 137.332C187.122 136.529 186.563 135.875 185.876 135.875H127.119Z" fill="#E6E6E6"/>
<path d="M127.119 144.621C126.431 144.621 125.872 145.275 125.872 146.079C125.872 146.883 126.431 147.537 127.119 147.537H172.351C173.038 147.537 173.597 146.883 173.597 146.079C173.597 145.275 173.038 144.621 172.351 144.621H127.119Z" fill="#E6E6E6"/>
<path d="M194.798 159.42H118.341V98.3465H194.798V159.42ZM119.865 156.961H193.274V100.806H119.865V156.961Z" fill="#E6E6E6"/>
<path d="M152.867 72.3877C155.861 72.3877 158.287 68.4718 158.287 63.6413C158.287 58.8109 155.861 54.895 152.867 54.895C149.874 54.895 147.447 58.8109 147.447 63.6413C147.447 68.4718 149.874 72.3877 152.867 72.3877Z" fill="#90E4EF"/>
<path d="M165.385 57.8104C165.146 57.8104 164.916 57.964 164.746 58.2374C164.577 58.5108 164.482 58.8815 164.482 59.2682C164.482 59.6548 164.577 60.0256 164.746 60.2989C164.916 60.5723 165.146 60.7259 165.385 60.7259H207.973C208.212 60.7249 208.441 60.5709 208.61 60.2977C208.779 60.0244 208.874 59.6541 208.874 59.2682C208.874 58.8822 208.779 58.5119 208.61 58.2387C208.441 57.9654 208.212 57.8114 207.973 57.8104H165.385Z" fill="#E6E6E6"/>
<path d="M165.385 66.5568C165.266 66.5562 165.149 66.5933 165.039 66.666C164.929 66.7388 164.829 66.8458 164.745 66.9809C164.661 67.116 164.594 67.2766 164.548 67.4534C164.503 67.6302 164.479 67.8199 164.479 68.0114C164.478 68.203 164.502 68.3928 164.547 68.57C164.592 68.7471 164.659 68.9081 164.742 69.0438C164.826 69.1795 164.926 69.2871 165.035 69.3607C165.145 69.4342 165.263 69.4721 165.381 69.4723H198.892C199.132 69.4723 199.361 69.3187 199.531 69.0453C199.7 68.7719 199.795 68.4011 199.795 68.0145C199.795 67.6279 199.7 67.2571 199.531 66.9838C199.361 66.7104 199.132 66.5568 198.892 66.5568H165.385Z" fill="#E6E6E6"/>
<path d="M216.389 84.8202H139.932V43.0116H216.389V84.8202ZM141.456 82.3609H214.865V45.4709H141.456V82.3609Z" fill="#E6E6E6"/>
<path d="M66.1587 244.079H70.0128L71.8465 220.09L66.1579 220.09L66.1587 244.079Z" fill="#FFB6B6"/>
<path d="M77.4461 249.853L65.333 249.854L65.3327 242.302L73.3368 242.301C74.4266 242.301 75.4718 243 76.2424 244.243C77.0131 245.487 77.446 247.173 77.4461 248.932L77.4461 249.853Z" fill="#2F2E41"/>
<path d="M27.6189 236.019L30.9964 239.015L39.7656 219.419L34.7809 214.997L27.6189 236.019Z" fill="#FFB6B6"/>
<path d="M35.7857 249.854L25.171 240.437L27.4257 233.819L34.4396 240.042C35.3946 240.889 36.1019 242.314 36.406 244.003C36.71 245.691 36.5858 247.506 36.0608 249.047L35.7857 249.854Z" fill="#2F2E41"/>
<path d="M65.9787 230.764C65.6352 230.763 65.3036 230.561 65.0457 230.195C64.7878 229.829 64.6212 229.324 64.5771 228.775L59.757 168.838C59.7357 168.573 59.663 168.326 59.5493 168.131C59.4357 167.937 59.2868 167.805 59.1241 167.756C58.9613 167.706 58.7929 167.74 58.643 167.854C58.4931 167.968 58.3693 168.155 58.2893 168.389L38.2011 227.2C38.0353 227.681 37.7683 228.049 37.4485 228.238C37.1288 228.428 36.7775 228.425 36.4586 228.232L32.08 225.54C31.9039 225.432 31.7429 225.268 31.6066 225.058C31.4703 224.848 31.3614 224.596 31.2863 224.317C31.2111 224.038 31.1712 223.738 31.169 223.434C31.1668 223.13 31.2023 222.828 31.2733 222.547L45.1889 167.384C45.2241 167.244 45.248 167.097 45.26 166.947C47.1448 143.407 51.9403 131.436 53.3651 128.328C53.4692 128.099 53.5377 127.834 53.5648 127.554C53.592 127.274 53.5769 126.987 53.521 126.718L53.3252 125.77C53.2469 125.394 53.2309 124.991 53.2786 124.602C53.3264 124.212 53.4362 123.85 53.5974 123.55C58.7316 114.113 67.6802 119.262 67.77 119.315L67.8149 119.342L67.843 119.404C77.877 141.61 74.1671 213.733 73.3215 227.966C73.2899 228.501 73.1422 229 72.9043 229.376C72.6665 229.752 72.3539 229.98 72.0219 230.02L66.0885 230.757C66.0517 230.762 66.015 230.764 65.9787 230.764Z" fill="#2F2E41"/>
<path d="M63.2581 64.2226C67.9953 64.2226 71.8355 58.0258 71.8355 50.3816C71.8355 42.7374 67.9953 36.5405 63.2581 36.5405C58.5209 36.5405 54.6807 42.7374 54.6807 50.3816C54.6807 58.0258 58.5209 64.2226 63.2581 64.2226Z" fill="#FFB8B8"/>
<path d="M49.9973 138.455L75.2368 142.162C73.0364 129.815 71.0203 117.512 72.6636 105.252C74.7504 94.3081 74.9444 88.2452 69.4394 83.0909L65.7226 69.7112L58.9957 69.3164L55.7156 67.8657C53.0656 74.7412 51.9815 82.8909 52.6496 90.9156C54.0755 108.366 53.6905 124.559 49.9973 138.455Z" fill="#90E4EF"/>
<path d="M53.8284 76.6911L51.2896 57.8883C50.7599 53.4374 50.8928 48.8471 51.6774 44.4953C51.7628 44.0493 51.8658 43.6126 51.9857 43.1878C52.6885 40.7164 53.7934 38.5988 55.1828 37.0604C56.5722 35.522 58.1942 34.6203 59.876 34.4514C65.6457 33.8083 66.4928 34.7898 66.7014 35.274C69.9617 35.0615 72.4898 37.0941 73.6433 40.8555C73.7563 41.2288 73.8172 41.6376 73.8217 42.053C73.8261 42.4685 73.7741 42.8804 73.6693 43.2599C73.5644 43.6393 73.4093 43.9771 73.2148 44.2494C73.0203 44.5216 72.7912 44.7218 72.5436 44.8357C70.9322 45.5853 68.6674 46.4181 66.9689 46.1732C63.5642 52.763 64.9561 64.8367 68.4103 72.0304L68.546 72.3132L65.1237 73.4449L61.1466 64.5078C61.0679 64.331 60.954 64.2031 60.8239 64.1455C60.6938 64.088 60.5553 64.1043 60.4318 64.1916C60.3082 64.279 60.2069 64.4322 60.1449 64.6256C60.0829 64.8189 60.064 65.0408 60.0912 65.254L61.2986 74.7194L53.8284 76.6911Z" fill="#2F2E41"/>
<path d="M239.335 250H0V249.029H239.444L239.335 250Z" fill="#CACACA"/>
<path d="M102.855 127.322L40.4295 198.556L25.4701 164.421L87.8958 93.1859L102.855 127.322Z" fill="white"/>
<path d="M46.5425 176.354C48.9866 173.565 49.5668 168.107 47.8384 164.163C46.1101 160.219 42.7276 159.282 40.2834 162.071C37.8393 164.86 37.2591 170.319 38.9875 174.263C40.7159 178.207 44.0983 179.143 46.5425 176.354Z" fill="#90E4EF"/>
<path d="M51.5473 152.789C51.3517 153.012 51.2191 153.352 51.1786 153.733C51.1381 154.114 51.193 154.505 51.3313 154.821C51.4697 155.136 51.6801 155.35 51.9162 155.416C52.1523 155.481 52.3949 155.392 52.5905 155.169L87.3621 115.491C87.5571 115.267 87.6891 114.928 87.7292 114.547C87.7694 114.167 87.7143 113.776 87.5762 113.461C87.4381 113.146 87.2282 112.932 86.9925 112.866C86.7568 112.801 86.5146 112.888 86.3189 113.11L51.5473 152.789Z" fill="#E6E6E6"/>
<path d="M54.6769 159.93C54.4812 160.153 54.3484 160.492 54.3075 160.872C54.2667 161.253 54.3212 161.644 54.459 161.96C54.5968 162.276 54.8067 162.491 55.0426 162.557C55.2785 162.624 55.521 162.536 55.7169 162.314L55.72 162.31L83.0775 131.092C83.2731 130.869 83.4058 130.53 83.4463 130.149C83.4868 129.768 83.4319 129.376 83.2935 129.061C83.225 128.904 83.1381 128.771 83.0378 128.669C82.9374 128.567 82.8256 128.498 82.7087 128.465C82.4725 128.4 82.23 128.489 82.0344 128.712L54.6769 159.93Z" fill="#E6E6E6"/>
<path d="M102.855 127.322L40.4295 198.556L25.4701 164.421L87.8958 93.1859L102.855 127.322ZM40.7939 195.129L100.731 126.734L87.5314 96.6138L27.5944 165.009L40.7939 195.129Z" fill="#E6E6E6"/>
<path d="M245.398 114.674C245.619 114.661 245.84 114.721 246.046 114.852C246.242 114.979 246.419 115.169 246.567 115.411C246.715 115.655 246.831 115.946 246.907 116.264C246.988 116.603 247.024 116.964 247.015 117.325C247.006 117.697 246.953 118.061 246.858 118.4C246.765 118.732 246.635 119.033 246.475 119.291C246.317 119.546 246.131 119.754 245.926 119.902C245.718 120.052 245.494 120.135 245.267 120.145C245.045 120.156 244.825 120.092 244.619 119.957C244.425 119.829 244.248 119.637 244.102 119.394C243.955 119.149 243.84 118.859 243.765 118.54C243.686 118.204 243.65 117.844 243.66 117.484C243.669 117.115 243.723 116.752 243.817 116.415C243.91 116.087 244.038 115.788 244.196 115.533C244.353 115.277 244.538 115.07 244.741 114.921C244.948 114.77 245.171 114.686 245.398 114.674Z" fill="#F2F2F2"/>
<path d="M69.8908 149.399L65.8313 113.589L66.1173 91.4433L56.968 90.982L58.6835 115.896L64.5992 150.443C64.1082 151.406 63.8074 152.585 63.7354 153.827C63.6635 155.068 63.8238 156.316 64.1957 157.409C64.5676 158.503 65.134 159.391 65.8219 159.96C66.5097 160.528 67.2873 160.751 68.0544 160.6C68.8216 160.449 69.543 159.93 70.1255 159.11C70.7081 158.291 71.1252 157.208 71.3228 156.003C71.5205 154.797 71.4897 153.524 71.2344 152.346C70.9792 151.169 70.5112 150.143 69.8908 149.399H69.8908Z" fill="#FFB8B8"/>
<path d="M56.3962 93.2888C59.711 91.2514 63.3743 91.2514 66.6891 93.2888L66.1173 74.8341C66.1173 73.8647 65.9989 72.9048 65.769 72.0092C65.5391 71.1135 65.2022 70.2998 64.7774 69.6143C64.3526 68.9288 63.8483 68.3851 63.2933 68.0141C62.7383 67.6431 62.1434 67.4522 61.5426 67.4522C60.9419 67.4522 60.347 67.6431 59.792 68.0141C59.237 68.3851 58.7327 68.9288 58.3079 69.6143C57.8831 70.2998 57.5461 71.1135 57.3163 72.0092C57.0864 72.9048 56.968 73.8647 56.968 74.8341L56.3962 93.2888Z" fill="#90E4EF"/>
</g>
<defs>
<clipPath id="clip0_13_5">
<rect width="250" height="250" fill="white"/>
</clipPath>
</defs>
</svg>
